<svg width="372" height="148" viewBox="0 0 372 148" fill="none" xmlns="http://www.w3.org/2000/svg">
<path d="M246.631 105.922C279.995 95.794 305.053 86.9485 328.545 73.9243C336.938 69.0287 344.969 63.3891 352.586 57.042C355.987 54.0864 358.843 50.3182 361.022 45.9083C364.748 38.8643 363.198 32.9825 356.44 28.3588C351.877 25.3036 347.135 22.8326 342.302 20.9897C329.769 16.1122 317.145 14.1884 304.565 12.6744C273.588 9.26707 242.899 9.53122 212.912 13.4634C178.796 17.4315 145.558 25.3844 113.612 37.2227C90.0077 45.8212 67.1443 56.4616 45.1704 69.0746C32.8042 76.2693 20.4272 83.4676 8.03947 90.6694L7.57866 90.9618C4.28777 92.7 1.82167 92.1876 0.537237 89.4726C-0.747193 86.7575 0.272156 84.4431 3.58814 82.343C24.4405 69.2639 45.3296 55.9134 67.4268 45.3737C91.0942 33.8789 115.595 24.4509 140.774 17.1491C183.494 4.85437 228.057 -0.865617 273.552 0.105807C291.586 0.198722 309.847 2.38537 328.102 6.63801C336.543 8.9398 344.941 11.9394 353.235 15.616C356.92 17.3312 360.423 19.8459 363.565 23.0306C370.589 29.7833 373.092 38.96 369.941 47.7021C368.059 52.8007 365.521 57.3914 362.409 61.3217C355.083 70.5827 345.709 76.5534 336.064 81.8588C305.103 98.8858 272.088 110.244 238.138 118.913C224.371 122.433 210.622 126.065 196.74 129.127C178.754 133.086 160.739 136.96 142.545 140.067C125.454 142.978 108.212 145.373 90.8226 146.991C80.9121 147.66 70.8645 147.462 60.751 146.397C55.8756 145.899 50.9694 144.39 46.2355 141.933C35.8067 136.626 31.844 125.9 35.344 114.167C37.6291 107.503 41.1428 101.775 45.6442 97.3773C55.483 87.227 66.3784 78.6528 78.1339 71.8094C94.1769 62.0281 111.393 54.806 129.437 50.2874C133.952 49.1619 136.454 50.1108 137.261 53.2885C138.069 56.4663 136.578 58.1098 132.478 59.5708C122.076 63.4973 111.545 66.9234 101.362 71.462C83.9357 78.9782 67.892 89.7925 53.7243 103.572C50.4616 106.751 47.5891 110.478 45.1696 114.673C39.7232 124.356 42.3007 131.292 52.5047 134.433C57.3776 135.871 62.2752 136.745 67.1317 137.045C82.2923 137.972 97.2523 137.074 111.805 134.364C139.551 129.613 167.251 124.665 194.746 118.982C214.889 114.646 234.71 109.049 246.631 105.922Z" fill="white"/>
</svg>
